HIERARCHY
ROOT Hips
{
    OFFSET 0.000000 0.000000 0.000000
    CHANNELS 6 Xposition Yposition Zposition Zrotation Xrotation Yrotation
    JOINT Spine
    {
        OFFSET -0.000000 7.236184 0.000000
        CHANNELS 3 Zrotation Xrotation Yrotation
        JOINT Spine1
        {
            OFFSET -0.000000 20.420147 0.000000
            CHANNELS 3 Zrotation Xrotation Yrotation
            JOINT Neck
            {
                OFFSET -0.000000 20.336288 1.848754
                CHANNELS 3 Zrotation Xrotation Yrotation
                JOINT Head
                {
                    OFFSET -0.000000 12.354461 -1.764923
                    CHANNELS 3 Zrotation Xrotation Yrotation
                    End Site
                    {
                        OFFSET -0.000000 22.061537 0.000000
                    }
                }
            }
            JOINT LeftShoulder
            {
                OFFSET 3.573296 18.396038 -0.314103
                CHANNELS 3 Zrotation Xrotation Yrotation
                JOINT LeftArm
                {
                    OFFSET 10.880760 0.000000 0.000000
                    CHANNELS 3 Zrotation Xrotation Yrotation
                    JOINT LeftForeArm
                    {
                        OFFSET 27.185530 0.000000 0.000000
                        CHANNELS 3 Zrotation Xrotation Yrotation
                        JOINT LeftHand
                        {
                            OFFSET 27.825975 0.000000 0.000000
                            CHANNELS 3 Zrotation Xrotation Yrotation
                            End Site
                            {
                                OFFSET 13.236923 0.000000 0.000000
                            }
                        }
                    }
                }
            }
            JOINT RightShoulder
            {
                OFFSET -3.474926 18.396038 -0.314103
                CHANNELS 3 Zrotation Xrotation Yrotation
                JOINT RightArm
                {
                    OFFSET -10.880760 0.000000 0.000000
                    CHANNELS 3 Zrotation Xrotation Yrotation
                    JOINT RightForeArm
                    {
                        OFFSET -27.185530 0.000000 0.000000
                        CHANNELS 3 Zrotation Xrotation Yrotation
                        JOINT RightHand
                        {
                            OFFSET -27.825975 0.000000 0.000000
                            CHANNELS 3 Zrotation Xrotation Yrotation
                            End Site
                            {
                                OFFSET -13.236923 0.000000 0.000000
                            }
                        }
                    }
                }
            }
        }
    }
    JOINT LeftUpLeg
    {
        OFFSET 8.824615 0.000000 0.000000
        CHANNELS 3 Zrotation Xrotation Yrotation
        JOINT LeftLeg
        {
            OFFSET -0.000000 -35.111282 0.000000
            CHANNELS 3 Zrotation Xrotation Yrotation
            JOINT LeftFoot
            {
                OFFSET -0.000000 -42.324711 0.000000
                CHANNELS 3 Zrotation Xrotation Yrotation
                JOINT LeftToeBase
                {
                    OFFSET -0.000000 -5.735999 13.236923
                    CHANNELS 3 Zrotation Xrotation Yrotation
                    End Site
                    {
                        OFFSET -0.000000 0.000000 3.529846
                    }
                }
            }
        }
    }
    JOINT RightUpLeg
    {
        OFFSET -8.824615 0.000000 0.000000
        CHANNELS 3 Zrotation Xrotation Yrotation
        JOINT RightLeg
        {
            OFFSET -0.000000 -35.111282 0.000000
            CHANNELS 3 Zrotation Xrotation Yrotation
            JOINT RightFoot
            {
                OFFSET -0.000000 -42.324711 0.000000
                CHANNELS 3 Zrotation Xrotation Yrotation
                JOINT RightToeBase
                {
                    OFFSET -0.000000 -5.735999 13.236923
                    CHANNELS 3 Zrotation Xrotation Yrotation
                    End Site
                    {
                        OFFSET -0.000000 0.000000 3.529846
                    }
                }
            }
        }
    }
}
MOTION
Frames:    7
Frame Time:    0.008333
1.709283    82.279907    107.897652    -0.984943    -14.060215    -178.108627    -2.981260    -11.208079    -0.374757    1.757187    5.703097    -0.169606    3.739456    3.791226    -1.042373    2.577363    -3.627152    -1.066255    -0.182978    16.772562    -2.069716    -52.337624    35.804638    -32.305309    0.839014    -6.081540    -12.975801    17.218712    -5.501293    3.221184    8.602700    19.204737    -6.835538    39.802757    39.936394    36.993938    -4.141062    -9.313488    20.479914    -11.739895    -8.397510    -1.736936    4.331220    -26.019884    0.949602    -4.408288    25.121696    11.021662    -8.282348    -10.412954    -18.019535    0.426778    -0.887615    -0.473831    -10.166033    -31.144466    -2.203115    6.138300    37.818928    1.205956    7.698847    -7.074399    -8.328617    0.283291    -7.769603    -0.309919    
1.792323    82.212982    108.013107    -0.994589    -14.169428    -178.305939    -2.905446    -10.970952    -0.372397    1.849725    5.622124    -0.184119    3.672145    3.652287    -0.917610    2.398236    -3.811426    -0.960652    -0.179394    16.663628    -2.133597    -52.099186    35.722809    -32.422943    0.906164    -6.106553    -12.996027    17.116734    -5.517035    3.250931    8.534754    19.209505    -6.761177    39.989971    39.695034    36.723789    -4.138123    -9.345874    20.431360    -11.783372    -8.434447    -1.709447    4.617141    -26.412464    1.222497    -4.622770    25.517874    11.415547    -8.458735    -10.418067    -18.347652    0.442748    -0.972579    -0.491639    -10.853693    -31.773254    -2.867877    5.653465    38.661156    1.738077    7.758967    -6.913702    -8.331378    0.292122    -7.874305    -0.319632
1.881757    82.137207    108.125557    -1.003805    -14.276669    -178.475876    -2.821074    -10.738019    -0.365575    1.929394    5.540022    -0.193618    3.603592    3.534565    -0.808238    2.222945    -3.995664    -0.869895    -0.174418    16.553457    -2.190389    -51.869637    35.613777    -32.547508    0.984218    -6.123492    -13.020779    17.021790    -5.525576    3.264897    8.469457    19.211555    -6.692073    40.181099    39.467495    36.436741    -4.128042    -9.372982    20.375082    -11.810134    -8.468315    -1.677937    4.903886    -26.826588    1.501288    -4.833815    25.955925    11.777417    -8.618471    -10.428975    -18.666317    0.471170    -1.051132    -0.523274    -11.580391    -32.328194    -3.506968    5.127216    39.397854    2.312921    7.773026    -6.758061    -8.408703    0.302382    -7.944880    -0.330896
1.977790    82.051941    108.235275    -1.012650    -14.384493    -178.616425    -2.729655    -10.510690    -0.354868    1.995773    5.454643    -0.198724    3.534498    3.436597    -0.714928    2.054724    -4.178393    -0.794329    -0.167675    16.442230    -2.239462    -51.654400    35.476295    -32.675140    1.075336    -6.134668    -13.053372    16.937262    -5.528876    3.262788    8.408226    19.211683    -6.629508    40.374104    39.253761    36.134983    -4.110741    -9.392424    20.311605    -11.821493    -8.496548    -1.643749    5.190244    -27.266579    1.788338    -5.039044    26.437819    12.104058    -8.758912    -10.446251    -18.975157    0.514156    -1.119857    -0.571086    -12.344338    -32.809975    -4.107625    4.583953    40.023991    2.905451    7.753731    -6.606411    -8.550718    0.314351    -7.985403    -0.344016
2.080725    81.956520    108.342812    -1.021270    -14.495694    -178.726547    -2.633119    -10.290536    -0.340885    2.049450    5.364699    -0.200021    3.465460    3.355248    -0.637757    1.895704    -4.358223    -0.733919    -0.158502    16.329733    -2.280357    -51.458576    35.309860    -32.802052    1.181022    -6.143275    -13.098119    16.865696    -5.529775    3.244372    8.351383    19.210808    -6.575025    40.567356    39.053528    35.821701    -4.086249    -9.402299    20.241730    -11.820116    -8.516938    -1.608738    5.475487    -27.736450    2.085897    -5.236318    26.964748    12.394331    -8.882051    -10.469858    -19.275682    0.573192    -1.177447    -0.636725    -13.143221    -33.221268    -4.659582    4.047405    40.538715    3.488827    7.713181    -6.459262    -8.745947    0.328053    -8.000635    -0.359021
2.193065    81.848236    108.450844    -1.030168    -14.615520    -178.807648    -2.531631    -10.075521    -0.324082    2.091869    5.268156    -0.197701    3.396148    3.286229    -0.575264    1.744267    -4.539014    -0.687332    -0.146222    16.213968    -2.313890    -51.281826    35.111164    -32.927429    1.304880    -6.153861    -13.161713    16.808420    -5.532159    3.210244    8.298288    19.209787    -6.528389    40.762444    38.862270    35.494083    -4.054038    -9.402203    20.164961    -11.807124    -8.529039    -1.574142    5.764558    -28.249073    2.402039    -5.426932    27.547087    12.652204    -8.991983    -10.500620    -19.574167    0.650335    -1.223294    -0.722479    -13.990066    -33.572536    -5.165824    3.528280    40.951107    4.048726    7.661533    -6.314984    -8.986465    0.343471    -7.993315    -0.375890
2.312864    81.728889    108.557495    -1.039757    -14.743675    -178.858490    -2.430005    -9.872021    -0.305286    2.123458    5.168114    -0.191952    3.328053    3.226403    -0.528431    1.605614    -4.716700    -0.655023    -0.131390    16.097481    -2.339691    -51.129868    34.884842    -33.045723    1.444764    -6.170464    -13.248569    16.771070    -5.539558    3.163443    8.249891    19.208408    -6.491426    40.953640    38.684238    35.162731    -4.015752    -9.393035    20.083294    -11.783462    -8.533119    -1.541829    6.050696    -28.795059    2.731515    -5.604569    28.170708    12.871811    -9.088857    -10.538795    -19.864353    0.743759    -1.257476    -0.826319    -14.862864    -33.859596    -5.611764    3.054602    41.254963    4.551846    7.610073    -6.178619    -9.254784    0.359766    -7.966770    -0.393707
